<svg width="274" height="274" viewBox="0 0 274 274" fill="none" xmlns="http://www.w3.org/2000/svg">
<path d="M196.938 179.812H77.0625V188.375H196.938V179.812Z" fill="#FFC925"/>
<path d="M196.938 188.375H77.0625V196.938H196.938V188.375Z" fill="#FFC925"/>
<path d="M196.938 196.938H77.0625V205.5H196.938V196.938Z" fill="#FFC925"/>
<path d="M196.938 205.5H77.0625V214.062H196.938V205.5Z" fill="#FFAE1A"/>
<path d="M94.1875 214.062H77.0625V222.625H94.1875V214.062Z" fill="#F78A18"/>
<path d="M196.938 214.062H102.75V222.625H196.938V214.062Z" fill="#F78A18"/>
<path d="M94.1875 222.625H77.0625V231.188H94.1875V222.625Z" fill="#FE500C"/>
<path d="M196.938 222.625H102.75V231.188H196.938V222.625Z" fill="#FE500C"/>
<path d="M94.1875 231.188H77.0625V239.75H94.1875V231.188Z" fill="#D9391F"/>
<path d="M196.938 231.188H102.75V239.75H196.938V231.188Z" fill="#D9391F"/>
<path d="M94.1875 239.75H77.0625V248.312H94.1875V239.75Z" fill="#D9391F"/>
<path d="M196.938 239.75H102.75V248.312H196.938V239.75Z" fill="#D9391F"/>
<path d="M94.1875 248.312H77.0625V256.875H94.1875V248.312Z" fill="#BD2D24"/>
<path d="M196.938 248.312H102.75V256.875H196.938V248.312Z" fill="#BD2D24"/>
<path d="M94.1875 256.875H77.0625V265.438H94.1875V256.875Z" fill="#BD2D24"/>
<path d="M196.938 256.875H102.75V265.438H196.938V256.875Z" fill="#BD2D24"/>
<path d="M94.1875 265.438H77.0625V274H94.1875V265.438Z" fill="#BD2D24"/>
<path d="M196.938 265.438H102.75V274H196.938V265.438Z" fill="#BD2D24"/>
</svg>
