<svg width="320" height="325" viewBox="0 0 320 325" fill="none" xmlns="http://www.w3.org/2000/svg">
<path d="M130 80H50V90H130V80Z" fill="#5A423F"/>
<path d="M270 80H130V90H270V80Z" fill="#486858"/>
<path d="M50 90H30V100H50V90Z" fill="#486858"/>
<path d="M60 90H50V100H60V90Z" fill="#5A423F"/>
<path d="M140 90H60V100H140V90Z" fill="#DBBC62"/>
<path d="M280 90H140V100H280V90Z" fill="#9CB4B8"/>
<path d="M290 90H280V100H290V90Z" fill="#486858"/>
<path d="M40 100H30V110H40V100Z" fill="#486858"/>
<path d="M50 100H40V110H50V100Z" fill="black"/>
<path d="M60 100H50V110H60V100Z" fill="#5A423F"/>
<path d="M140 100H60V110H140V100Z" fill="#DBBC62"/>
<path d="M280 100H140V110H280V100Z" fill="#9CB4B8"/>
<path d="M290 100H280V110H290V100Z" fill="#486858"/>
<path d="M160 110H30V120H160V110Z" fill="#486858"/>
<path d="M170 110H160V120H170V110Z" fill="#5A423F"/>
<path d="M290 110H170V120H290V110Z" fill="#486858"/>
<path d="M40 120H30V130H40V120Z" fill="#486858"/>
<path d="M150 120H40V130H150V120Z" fill="#5A423F"/>
<path d="M160 120H150V130H160V120Z" fill="#486858"/>
<path d="M170 120H160V130H170V120Z" fill="#5A423F"/>
<path d="M180 120H170V130H180V120Z" fill="#486858"/>
<path d="M280 120H180V130H280V120Z" fill="#D9391F"/>
<path d="M290 120H280V130H290V120Z" fill="#486858"/>
<path d="M40 130H30V140H40V130Z" fill="#486858"/>
<path d="M50 130H40V140H50V130Z" fill="#5A423F"/>
<path d="M100 130H50V140H100V130Z" fill="#DBBC62"/>
<path d="M150 130H100V140H150V130Z" fill="#5A423F"/>
<path d="M160 130H150V140H160V130Z" fill="#486858"/>
<path d="M170 130H160V140H170V130Z" fill="#5A423F"/>
<path d="M290 130H170V140H290V130Z" fill="#486858"/>
<path d="M40 140H30V150H40V140Z" fill="#486858"/>
<path d="M50 140H40V150H50V140Z" fill="#5A423F"/>
<path d="M60 140H50V150H60V140Z" fill="#DBBC62"/>
<path d="M90 140H60V150H90V140Z" fill="#5A423F"/>
<path d="M100 140H90V150H100V140Z" fill="#DBBC62"/>
<path d="M150 140H100V150H150V140Z" fill="#5A423F"/>
<path d="M160 140H150V150H160V140Z" fill="#486858"/>
<path d="M170 140H160V150H170V140Z" fill="#5A423F"/>
<path d="M180 140H170V150H180V140Z" fill="#486858"/>
<path d="M280 140H180V150H280V140Z" fill="#FFC110"/>
<path d="M290 140H280V150H290V140Z" fill="#486858"/>
<path d="M40 150H30V160H40V150Z" fill="#486858"/>
<path d="M50 150H40V160H50V150Z" fill="#5A423F"/>
<path d="M60 150H50V160H60V150Z" fill="#DBBC62"/>
<path d="M90 150H60V160H90V150Z" fill="#5A423F"/>
<path d="M100 150H90V160H100V150Z" fill="#DBBC62"/>
<path d="M150 150H100V160H150V150Z" fill="#5A423F"/>
<path d="M160 150H150V160H160V150Z" fill="#486858"/>
<path d="M170 150H160V160H170V150Z" fill="#5A423F"/>
<path d="M290 150H170V160H290V150Z" fill="#486858"/>
<path d="M40 160H30V170H40V160Z" fill="#486858"/>
<path d="M50 160H40V170H50V160Z" fill="#5A423F"/>
<path d="M70 160H50V170H70V160Z" fill="#DBBC62"/>
<path d="M80 160H70V170H80V160Z" fill="#5A423F"/>
<path d="M100 160H80V170H100V160Z" fill="#DBBC62"/>
<path d="M150 160H100V170H150V160Z" fill="#5A423F"/>
<path d="M160 160H150V170H160V160Z" fill="#486858"/>
<path d="M170 160H160V170H170V160Z" fill="#5A423F"/>
<path d="M180 160H170V170H180V160Z" fill="#486858"/>
<path d="M280 160H180V170H280V160Z" fill="#A86F60"/>
<path d="M290 160H280V170H290V160Z" fill="#486858"/>
<path d="M40 170H30V180H40V170Z" fill="#486858"/>
<path d="M50 170H40V180H50V170Z" fill="#5A423F"/>
<path d="M60 170H50V180H60V170Z" fill="#DBBC62"/>
<path d="M90 170H60V180H90V170Z" fill="#5A423F"/>
<path d="M100 170H90V180H100V170Z" fill="#DBBC62"/>
<path d="M150 170H100V180H150V170Z" fill="#5A423F"/>
<path d="M160 170H150V180H160V170Z" fill="#486858"/>
<path d="M170 170H160V180H170V170Z" fill="#5A423F"/>
<path d="M180 170H170V180H180V170Z" fill="#486858"/>
<path d="M280 170H180V180H280V170Z" fill="#A86F60"/>
<path d="M290 170H280V180H290V170Z" fill="#486858"/>
<path d="M40 180H30V190H40V180Z" fill="#486858"/>
<path d="M50 180H40V190H50V180Z" fill="#5A423F"/>
<path d="M100 180H50V190H100V180Z" fill="#DBBC62"/>
<path d="M110 180H100V190H110V180Z" fill="#5A423F"/>
<path d="M140 180H110V190H140V180Z" fill="#D9391F"/>
<path d="M150 180H140V190H150V180Z" fill="#5A423F"/>
<path d="M160 180H150V190H160V180Z" fill="#486858"/>
<path d="M170 180H160V190H170V180Z" fill="#5A423F"/>
<path d="M290 180H170V190H290V180Z" fill="#486858"/>
<path d="M40 190H30V200H40V190Z" fill="#486858"/>
<path d="M150 190H40V200H150V190Z" fill="#5A423F"/>
<path d="M160 190H150V200H160V190Z" fill="#486858"/>
<path d="M170 190H160V200H170V190Z" fill="#5A423F"/>
<path d="M290 190H170V200H290V190Z" fill="#486858"/>
<path d="M160 200H30V210H160V200Z" fill="#486858"/>
<path d="M170 200H160V210H170V200Z" fill="#5A423F"/>
<path d="M290 200H170V210H290V200Z" fill="#486858"/>
<g clip-path="url(#clip0_24_144)">
<path d="M160 115H100V125H160V115Z" fill="#142E21"/>
<path d="M230 115H170V125H230V115Z" fill="#142E21"/>
<path d="M110 125H100V135H110V125Z" fill="#142E21"/>
<path d="M130 125H110V135H130V125Z" fill="#D0CAB9"/>
<path d="M150 125H130V135H150V125Z" fill="black"/>
<path d="M160 125H150V135H160V125Z" fill="#142E21"/>
<path d="M180 125H170V135H180V125Z" fill="#142E21"/>
<path d="M200 125H180V135H200V125Z" fill="#D0CAB9"/>
<path d="M220 125H200V135H220V125Z" fill="black"/>
<path d="M230 125H220V135H230V125Z" fill="#142E21"/>
<path d="M110 135H70V145H110V135Z" fill="#142E21"/>
<path d="M130 135H110V145H130V135Z" fill="#D0CAB9"/>
<path d="M150 135H130V145H150V135Z" fill="black"/>
<path d="M180 135H150V145H180V135Z" fill="#142E21"/>
<path d="M200 135H180V145H200V135Z" fill="#D0CAB9"/>
<path d="M220 135H200V145H220V135Z" fill="black"/>
<path d="M230 135H220V145H230V135Z" fill="#142E21"/>
<path d="M80 145H70V155H80V145Z" fill="#142E21"/>
<path d="M110 145H100V155H110V145Z" fill="#142E21"/>
<path d="M130 145H110V155H130V145Z" fill="#D0CAB9"/>
<path d="M150 145H130V155H150V145Z" fill="black"/>
<path d="M160 145H150V155H160V145Z" fill="#142E21"/>
<path d="M180 145H170V155H180V145Z" fill="#142E21"/>
<path d="M200 145H180V155H200V145Z" fill="#D0CAB9"/>
<path d="M220 145H200V155H220V145Z" fill="black"/>
<path d="M230 145H220V155H230V145Z" fill="#142E21"/>
<path d="M80 155H70V165H80V155Z" fill="#142E21"/>
<path d="M110 155H100V165H110V155Z" fill="#142E21"/>
<path d="M130 155H110V165H130V155Z" fill="#D0CAB9"/>
<path d="M150 155H130V165H150V155Z" fill="black"/>
<path d="M160 155H150V165H160V155Z" fill="#142E21"/>
<path d="M180 155H170V165H180V155Z" fill="#142E21"/>
<path d="M200 155H180V165H200V155Z" fill="#D0CAB9"/>
<path d="M220 155H200V165H220V155Z" fill="black"/>
<path d="M230 155H220V165H230V155Z" fill="#142E21"/>
<path d="M160 165H100V175H160V165Z" fill="#142E21"/>
<path d="M230 165H170V175H230V165Z" fill="#142E21"/>
<path d="M225 210H85V220H225V210Z" fill="#21382C"/>
<path d="M225 218H85V228H225V218Z" fill="#21382C"/>
<path d="M225 226H85V236H225V226Z" fill="#21382C"/>
<path d="M225 234H85V244H225V234Z" fill="#21382C"/>
<path d="M105 242H85V252H105V242Z" fill="#21382C"/>
<path d="M225 242H115V252H225V242Z" fill="#21382C"/>
<path d="M105 250H85V260H105V250Z" fill="#21382C"/>
<path d="M225 250H115V260H225V250Z" fill="#21382C"/>
<path d="M105 258H85V268H105V258Z" fill="#21382C"/>
<path d="M225 258H115V268H225V258Z" fill="#21382C"/>
<path d="M105 266H85V276H105V266Z" fill="#21382C"/>
<path d="M225 266H115V276H225V266Z" fill="#21382C"/>
<path d="M105 274H85V284H105V274Z" fill="#21382C"/>
<path d="M225 274H115V284H225V274Z" fill="#21382C"/>
<path d="M105 282H85V292H105V282Z" fill="#21382C"/>
<path d="M225 282H115V292H225V282Z" fill="#21382C"/>
<path d="M105 290H85V300H105V290Z" fill="#21382C"/>
<path d="M225 290H115V300H225V290Z" fill="#21382C"/>
</g>
<defs>
<clipPath id="clip0_24_144">
<rect width="320" height="320" fill="white" transform="translate(0 5)"/>
</clipPath>
</defs>
</svg>
