<svg width="315" height="320" viewBox="0 0 315 320" fill="none" xmlns="http://www.w3.org/2000/svg">
<path d="M225 210H85V220H225V210Z" fill="#CF774E"/>
<path d="M225 217H85V227H225V217Z" fill="#CF774E"/>
<path d="M225 224H85V234H225V224Z" fill="#CF774E"/>
<path d="M225 231H85V241H225V231Z" fill="#CF774E"/>
<path d="M105 238H85V248H105V238Z" fill="#CF774E"/>
<path d="M225 238H115V248H225V238Z" fill="#CF774E"/>
<path d="M105 245H85V255H105V245Z" fill="#CF774E"/>
<path d="M225 245H115V255H225V245Z" fill="#CF774E"/>
<path d="M105 252H85V262H105V252Z" fill="#CF774E"/>
<path d="M225 252H115V262H225V252Z" fill="#CF774E"/>
<path d="M105 259H85V269H105V259Z" fill="#CF774E"/>
<path d="M225 259H115V269H225V259Z" fill="#CF774E"/>
<path d="M105 266H85V276H105V266Z" fill="#CF774E"/>
<path d="M225 266H115V276H225V266Z" fill="#CF774E"/>
<path d="M105 273H85V283H105V273Z" fill="#CF774E"/>
<path d="M225 273H115V283H225V273Z" fill="#CF774E"/>
<path d="M105 280H85V290H105V280Z" fill="#CF774E"/>
<path d="M225 280H115V290H225V280Z" fill="#CF774E"/>
<path d="M159 26H149V36H159V26Z" fill="#486858"/>
<path d="M149 36H139V46H149V36Z" fill="#486858"/>
<path d="M89 46H79V56H89V46Z" fill="#114626"/>
<path d="M159 46H149V56H159V46Z" fill="#486858"/>
<path d="M209 46H199V56H209V46Z" fill="#8BA99A"/>
<path d="M79 56H69V66H79V56Z" fill="#114626"/>
<path d="M119 56H109V66H119V56Z" fill="#486858"/>
<path d="M169 56H139V66H169V56Z" fill="#486858"/>
<path d="M179 56H169V66H179V56Z" fill="#8BA99A"/>
<path d="M209 56H189V66H209V56Z" fill="#8BA99A"/>
<path d="M99 66H79V76H99V66Z" fill="#114626"/>
<path d="M139 66H119V76H139V66Z" fill="#486858"/>
<path d="M149 66H139V76H149V66Z" fill="#114626"/>
<path d="M169 66H149V76H169V66Z" fill="#486858"/>
<path d="M199 66H169V76H199V66Z" fill="#8BA99A"/>
<path d="M259 66H239V76H259V66Z" fill="#114626"/>
<path d="M129 76H99V86H129V76Z" fill="#8BA99A"/>
<path d="M149 76H129V86H149V76Z" fill="#486858"/>
<path d="M159 76H149V86H159V76Z" fill="#114626"/>
<path d="M169 76H159V86H169V76Z" fill="#486858"/>
<path d="M179 76H169V86H179V76Z" fill="#8BA99A"/>
<path d="M189 76H179V86H189V76Z" fill="#114626"/>
<path d="M209 76H189V86H209V76Z" fill="#8BA99A"/>
<path d="M219 76H209V86H219V76Z" fill="#486858"/>
<path d="M249 76H239V86H249V76Z" fill="#114626"/>
<path d="M69 86H59V96H69V86Z" fill="#486858"/>
<path d="M99 86H89V96H99V86Z" fill="#8BA99A"/>
<path d="M109 86H99V96H109V86Z" fill="#114626"/>
<path d="M139 86H109V96H139V86Z" fill="#8BA99A"/>
<path d="M149 86H139V96H149V86Z" fill="#486858"/>
<path d="M159 86H149V96H159V86Z" fill="#114626"/>
<path d="M169 86H159V96H169V86Z" fill="#486858"/>
<path d="M189 86H169V96H189V86Z" fill="#8BA99A"/>
<path d="M199 86H189V96H199V86Z" fill="#114626"/>
<path d="M219 86H199V96H219V86Z" fill="#8BA99A"/>
<path d="M239 86H219V96H239V86Z" fill="#486858"/>
<path d="M79 96H49V106H79V96Z" fill="#486858"/>
<path d="M109 96H79V106H109V96Z" fill="#8BA99A"/>
<path d="M119 96H109V106H119V96Z" fill="#114626"/>
<path d="M149 96H119V106H149V96Z" fill="#8BA99A"/>
<path d="M179 96H149V106H179V96Z" fill="#486858"/>
<path d="M199 96H179V106H199V96Z" fill="#8BA99A"/>
<path d="M209 96H199V106H209V96Z" fill="#114626"/>
<path d="M219 96H209V106H219V96Z" fill="#8BA99A"/>
<path d="M229 96H219V106H229V96Z" fill="#486858"/>
<path d="M69 106H59V116H69V106Z" fill="#486858"/>
<path d="M89 106H79V116H89V106Z" fill="#486858"/>
<path d="M109 106H89V116H109V106Z" fill="#8BA99A"/>
<path d="M119 106H109V116H119V106Z" fill="#114626"/>
<path d="M149 106H119V116H149V106Z" fill="#8BA99A"/>
<path d="M159 106H149V116H159V106Z" fill="#486858"/>
<path d="M169 106H159V116H169V106Z" fill="#114626"/>
<path d="M189 106H169V116H189V106Z" fill="#486858"/>
<path d="M199 106H189V116H199V106Z" fill="#8BA99A"/>
<path d="M209 106H199V116H209V106Z" fill="#114626"/>
<path d="M219 106H209V116H219V106Z" fill="#8BA99A"/>
<path d="M239 106H219V116H239V106Z" fill="#486858"/>
<path d="M89 116H79V126H89V116Z" fill="#486858"/>
<path d="M99 116H89V126H99V116Z" fill="#114626"/>
<path d="M119 116H99V126H119V116Z" fill="#8BA99A"/>
<path d="M129 116H119V126H129V116Z" fill="#114626"/>
<path d="M149 116H129V126H149V116Z" fill="#8BA99A"/>
<path d="M169 116H149V126H169V116Z" fill="#486858"/>
<path d="M179 116H169V126H179V116Z" fill="#114626"/>
<path d="M199 116H179V126H199V116Z" fill="#486858"/>
<path d="M219 116H199V126H219V116Z" fill="#8BA99A"/>
<path d="M229 116H219V126H229V116Z" fill="#114626"/>
<path d="M249 116H229V126H249V116Z" fill="#486858"/>
<path d="M269 116H259V126H269V116Z" fill="#114626"/>
<path d="M79 126H59V136H79V126Z" fill="#486858"/>
<path d="M89 126H79V136H89V126Z" fill="#114626"/>
<path d="M99 126H89V136H99V126Z" fill="#486858"/>
<path d="M119 126H99V136H119V126Z" fill="#8BA99A"/>
<path d="M129 126H119V136H129V126Z" fill="#114626"/>
<path d="M149 126H129V136H149V126Z" fill="#8BA99A"/>
<path d="M169 126H149V136H169V126Z" fill="#486858"/>
<path d="M179 126H169V136H179V126Z" fill="#114626"/>
<path d="M199 126H179V136H199V126Z" fill="#486858"/>
<path d="M219 126H199V136H219V126Z" fill="#8BA99A"/>
<path d="M249 126H219V136H249V126Z" fill="#486858"/>
<path d="M269 126H259V136H269V126Z" fill="#114626"/>
<path d="M79 136H69V146H79V136Z" fill="#486858"/>
<path d="M89 136H79V146H89V136Z" fill="#8BA99A"/>
<path d="M109 136H89V146H109V136Z" fill="#486858"/>
<path d="M119 136H109V146H119V136Z" fill="#8BA99A"/>
<path d="M129 136H119V146H129V136Z" fill="#114626"/>
<path d="M149 136H129V146H149V136Z" fill="#8BA99A"/>
<path d="M199 136H149V146H199V136Z" fill="#486858"/>
<path d="M219 136H199V146H219V136Z" fill="#8BA99A"/>
<path d="M239 136H219V146H239V136Z" fill="#486858"/>
<path d="M249 136H239V146H249V136Z" fill="#114626"/>
<path d="M259 136H249V146H259V136Z" fill="#486858"/>
<path d="M269 136H259V146H269V136Z" fill="#114626"/>
<path d="M109 146H59V156H109V146Z" fill="#486858"/>
<path d="M179 146H109V156H179V146Z" fill="#8BA99A"/>
<path d="M209 146H179V156H209V146Z" fill="#486858"/>
<path d="M219 146H209V156H219V146Z" fill="#8BA99A"/>
<path d="M229 146H219V156H229V146Z" fill="#114626"/>
<path d="M259 146H229V156H259V146Z" fill="#486858"/>
<path d="M59 156H49V166H59V156Z" fill="#114626"/>
<path d="M99 156H69V166H99V156Z" fill="#486858"/>
<path d="M109 156H99V166H109V156Z" fill="#114626"/>
<path d="M189 156H109V166H189V156Z" fill="#8BA99A"/>
<path d="M209 156H189V166H209V156Z" fill="#486858"/>
<path d="M219 156H209V166H219V156Z" fill="#8BA99A"/>
<path d="M229 156H219V166H229V156Z" fill="#114626"/>
<path d="M249 156H229V166H249V156Z" fill="#486858"/>
<path d="M59 166H49V176H59V166Z" fill="#114626"/>
<path d="M89 166H79V176H89V166Z" fill="#486858"/>
<path d="M99 166H89V176H99V166Z" fill="#114626"/>
<path d="M199 166H99V176H199V166Z" fill="#8BA99A"/>
<path d="M209 166H199V176H209V166Z" fill="#486858"/>
<path d="M219 166H209V176H219V166Z" fill="#114626"/>
<path d="M239 166H219V176H239V166Z" fill="#486858"/>
<path d="M99 176H69V186H99V176Z" fill="#486858"/>
<path d="M109 176H99V186H109V176Z" fill="#8BA99A"/>
<path d="M119 176H109V186H119V176Z" fill="#486858"/>
<path d="M129 176H119V186H129V176Z" fill="#114626"/>
<path d="M189 176H129V186H189V176Z" fill="#8BA99A"/>
<path d="M199 176H189V186H199V176Z" fill="#486858"/>
<path d="M209 176H199V186H209V176Z" fill="#114626"/>
<path d="M239 176H209V186H239V176Z" fill="#486858"/>
<path d="M249 176H239V186H249V176Z" fill="#114626"/>
<path d="M89 186H79V196H89V186Z" fill="#114626"/>
<path d="M99 186H89V196H99V186Z" fill="#8BA99A"/>
<path d="M119 186H99V196H119V186Z" fill="#486858"/>
<path d="M129 186H119V196H129V186Z" fill="#114626"/>
<path d="M139 186H129V196H139V186Z" fill="#8BA99A"/>
<path d="M179 186H139V196H179V186Z" fill="black"/>
<path d="M189 186H179V196H189V186Z" fill="#8BA99A"/>
<path d="M229 186H189V196H229V186Z" fill="#486858"/>
<path d="M259 186H239V196H259V186Z" fill="#114626"/>
<path d="M109 196H69V206H109V196Z" fill="#486858"/>
<path d="M119 196H109V206H119V196Z" fill="#114626"/>
<path d="M189 196H119V206H189V196Z" fill="#8BA99A"/>
<path d="M209 196H189V206H209V196Z" fill="#486858"/>
<path d="M219 196H209V206H219V196Z" fill="#114626"/>
<path d="M239 196H219V206H239V196Z" fill="#486858"/>
<path d="M79 206H69V216H79V206Z" fill="#486858"/>
<path d="M109 206H89V216H109V206Z" fill="#114626"/>
<path d="M179 206H109V216H179V206Z" fill="#8BA99A"/>
<path d="M199 206H179V216H199V206Z" fill="#486858"/>
<path d="M209 206H199V216H209V206Z" fill="#114626"/>
<path d="M219 206H209V216H219V206Z" fill="#486858"/>
<path d="M229 206H219V216H229V206Z" fill="#114626"/>
<path d="M109 216H99V226H109V216Z" fill="#114626"/>
<path d="M129 216H119V226H129V216Z" fill="#8BA99A"/>
<path d="M169 216H139V226H169V216Z" fill="#8BA99A"/>
<path d="M179 216H169V226H179V216Z" fill="#486858"/>
<path d="M189 216H179V226H189V216Z" fill="#114626"/>
<path d="M199 216H189V226H199V216Z" fill="#486858"/>
<path d="M219 216H209V226H219V216Z" fill="#486858"/>
<path d="M149 226H139V236H149V226Z" fill="#8BA99A"/>
<path d="M159 226H149V236H159V226Z" fill="#114626"/>
<path d="M179 226H169V236H179V226Z" fill="#114626"/>
<path d="M159 106H99V116H159V106Z" fill="#CF774E"/>
<path d="M229 106H169V116H229V106Z" fill="#CF774E"/>
<path d="M109 116H99V126H109V116Z" fill="#CF774E"/>
<path d="M129 116H109V126H129V116Z" fill="#8BA99A"/>
<path d="M149 116H129V126H149V116Z" fill="#486858"/>
<path d="M159 116H149V126H159V116Z" fill="#CF774E"/>
<path d="M179 116H169V126H179V116Z" fill="#CF774E"/>
<path d="M199 116H179V126H199V116Z" fill="#8BA99A"/>
<path d="M219 116H199V126H219V116Z" fill="#486858"/>
<path d="M229 116H219V126H229V116Z" fill="#CF774E"/>
<path d="M109 126H69V136H109V126Z" fill="#CF774E"/>
<path d="M129 126H109V136H129V126Z" fill="#8BA99A"/>
<path d="M149 126H129V136H149V126Z" fill="#486858"/>
<path d="M179 126H149V136H179V126Z" fill="#CF774E"/>
<path d="M199 126H179V136H199V126Z" fill="#8BA99A"/>
<path d="M219 126H199V136H219V126Z" fill="#486858"/>
<path d="M229 126H219V136H229V126Z" fill="#CF774E"/>
<path d="M79 136H69V146H79V136Z" fill="#CF774E"/>
<path d="M109 136H99V146H109V136Z" fill="#CF774E"/>
<path d="M129 136H109V146H129V136Z" fill="#8BA99A"/>
<path d="M149 136H129V146H149V136Z" fill="#486858"/>
<path d="M159 136H149V146H159V136Z" fill="#CF774E"/>
<path d="M179 136H169V146H179V136Z" fill="#CF774E"/>
<path d="M199 136H179V146H199V136Z" fill="#8BA99A"/>
<path d="M219 136H199V146H219V136Z" fill="#486858"/>
<path d="M229 136H219V146H229V136Z" fill="#CF774E"/>
<path d="M79 146H69V156H79V146Z" fill="#CF774E"/>
<path d="M109 146H99V156H109V146Z" fill="#CF774E"/>
<path d="M129 146H109V156H129V146Z" fill="#8BA99A"/>
<path d="M149 146H129V156H149V146Z" fill="#486858"/>
<path d="M159 146H149V156H159V146Z" fill="#CF774E"/>
<path d="M179 146H169V156H179V146Z" fill="#CF774E"/>
<path d="M199 146H179V156H199V146Z" fill="#8BA99A"/>
<path d="M219 146H199V156H219V146Z" fill="#486858"/>
<path d="M229 146H219V156H229V146Z" fill="#CF774E"/>
<path d="M159 156H99V166H159V156Z" fill="#CF774E"/>
<path d="M229 156H169V166H229V156Z" fill="#CF774E"/>
</svg>
